<svg width="58" height="56" viewBox="0 0 58 56" fill="none" xmlns="http://www.w3.org/2000/svg">
<rect width="58" height="56" rx="28" fill="url(#paint0_linear_7_9)"/>
<path d="M35.8702 32.1258H34.4248L33.9125 31.6318C35.7675 29.4802 36.787 26.7333 36.785 23.8925C36.785 21.5404 36.0875 19.2411 34.7808 17.2854C33.474 15.3297 31.6166 13.8054 29.4436 12.9053C27.2705 12.0052 24.8793 11.7696 22.5724 12.2285C20.2655 12.6874 18.1464 13.82 16.4832 15.4832C14.82 17.1464 13.6874 19.2655 13.2285 21.5724C12.7696 23.8793 13.0052 26.2705 13.9053 28.4436C14.8054 30.6166 16.3297 32.474 18.2854 33.7808C20.2411 35.0875 22.5404 35.785 24.8925 35.785C27.8382 35.785 30.546 34.7055 32.6318 32.9125L33.1258 33.4248V34.8702L42.2739 44L45 41.2739L35.8702 32.1258ZM24.8925 32.1258C20.3368 32.1258 16.6592 28.4483 16.6592 23.8925C16.6592 19.3368 20.3368 15.6592 24.8925 15.6592C29.4483 15.6592 33.1258 19.3368 33.1258 23.8925C33.1258 28.4483 29.4483 32.1258 24.8925 32.1258Z" fill="white"/>
<defs>
<linearGradient id="paint0_linear_7_9" x1="0" y1="0" x2="55.9655" y2="57.9643" gradientUnits="userSpaceOnUse">
<stop stop-color="#FD6E6A"/>
<stop offset="1" stop-color="#FFC600"/>
</linearGradient>
</defs>
</svg>
