<svg width="18" height="18" viewBox="0 0 18 18" fill="none" xmlns="http://www.w3.org/2000/svg">
<path fill-rule="evenodd" clip-rule="evenodd" d="M2.75011 1.1556C3.81042 0.0952905 5.56402 0.219914 6.46372 1.41952L7.95719 3.41078C8.69288 4.39177 8.59538 5.76449 7.72828 6.63157L6.62719 7.73265C6.7339 8.01043 7.08518 8.61988 8.15489 9.68961C9.22462 10.7593 9.83415 11.1106 10.1119 11.2173L11.213 10.1163C12.0801 9.2492 13.4528 9.15162 14.4337 9.88739L16.425 11.3809C17.6246 12.2806 17.7493 14.0342 16.6889 15.0944C16.3442 15.4392 16.2859 15.4975 15.7106 16.0728C15.1243 16.659 13.8795 17.2071 12.619 17.2618C10.6467 17.3476 7.96771 16.4719 4.6702 13.1744C1.37273 9.87688 0.496947 7.19782 0.582704 5.22548C0.630409 4.12831 0.979229 2.92328 1.77638 2.13851C2.34706 1.55866 2.42127 1.48444 2.75011 1.1556ZM2.22386 5.29684C2.16442 6.66401 2.74061 8.92165 5.83177 12.0128C8.92294 15.104 11.1805 15.6802 12.5477 15.6207C13.824 15.5652 14.5086 14.9485 14.5491 14.9112L15.5274 13.9329C15.8808 13.5795 15.8393 12.9949 15.4394 12.695L13.4481 11.2016C13.1211 10.9563 12.6636 10.9888 12.3745 11.2779C11.9391 11.7133 11.6418 12.0149 11.0599 12.5947C9.85124 13.7988 7.78216 11.64 6.99334 10.8513C6.26843 10.1263 4.05927 7.99154 5.2487 6.78801C5.25106 6.78564 5.57143 6.46527 6.5667 5.47C6.85572 5.18098 6.88825 4.7234 6.643 4.3964L5.14955 2.40514C4.84965 2.00528 4.26511 1.96373 3.91169 2.31717C3.58638 2.64247 3.21823 3.01061 2.93435 3.29647C2.35006 3.8848 2.25513 4.57766 2.22386 5.29684Z" fill="#6C5DD3"/>
</svg>
