<svg width="36" height="36" viewBox="0 0 36 36" fill="none" xmlns="http://www.w3.org/2000/svg">
<g clip-path="url(#clip0_4_13)">
<path d="M32.25 6H29V8H32V30H4V8H7V6H3.75C3.51623 6.00391 3.28553 6.05383 3.07106 6.14691C2.8566 6.23999 2.66257 6.37441 2.50006 6.54249C2.33755 6.71057 2.20974 6.90902 2.12394 7.1265C2.03814 7.34398 1.99602 7.57624 2 7.81V30.19C1.99602 30.4238 2.03814 30.656 2.12394 30.8735C2.20974 31.091 2.33755 31.2894 2.50006 31.4575C2.66257 31.6256 2.8566 31.76 3.07106 31.8531C3.28553 31.9462 3.51623 31.9961 3.75 32H32.25C32.4838 31.9961 32.7145 31.9462 32.9289 31.8531C33.1434 31.76 33.3374 31.6256 33.4999 31.4575C33.6624 31.2894 33.7902 31.091 33.8761 30.8735C33.9619 30.656 34.004 30.4238 34 30.19V7.81C34.004 7.57624 33.9619 7.34398 33.8761 7.1265C33.7902 6.90902 33.6624 6.71057 33.4999 6.54249C33.3374 6.37441 33.1434 6.23999 32.9289 6.14691C32.7145 6.05383 32.4838 6.00391 32.25 6Z" fill="#FBB040"/>
<path d="M8 14H10V16H8V14Z" fill="#FBB040"/>
<path d="M14 14H16V16H14V14Z" fill="#FBB040"/>
<path d="M20 14H22V16H20V14Z" fill="#FBB040"/>
<path d="M26 14H28V16H26V14Z" fill="#FBB040"/>
<path d="M8 19H10V21H8V19Z" fill="#FBB040"/>
<path d="M14 19H16V21H14V19Z" fill="#FBB040"/>
<path d="M20 19H22V21H20V19Z" fill="#FBB040"/>
<path d="M26 19H28V21H26V19Z" fill="#FBB040"/>
<path d="M8 24H10V26H8V24Z" fill="#FBB040"/>
<path d="M14 24H16V26H14V24Z" fill="#FBB040"/>
<path d="M20 24H22V26H20V24Z" fill="#FBB040"/>
<path d="M26 24H28V26H26V24Z" fill="#FBB040"/>
<path d="M10 10C10.2652 10 10.5196 9.89464 10.7071 9.70711C10.8946 9.51957 11 9.26522 11 9V3C11 2.73478 10.8946 2.48043 10.7071 2.29289C10.5196 2.10536 10.2652 2 10 2C9.73478 2 9.48043 2.10536 9.29289 2.29289C9.10536 2.48043 9 2.73478 9 3V9C9 9.26522 9.10536 9.51957 9.29289 9.70711C9.48043 9.89464 9.73478 10 10 10Z" fill="#FBB040"/>
<path d="M26 10C26.2652 10 26.5196 9.89464 26.7071 9.70711C26.8946 9.51957 27 9.26522 27 9V3C27 2.73478 26.8946 2.48043 26.7071 2.29289C26.5196 2.10536 26.2652 2 26 2C25.7348 2 25.4804 2.10536 25.2929 2.29289C25.1054 2.48043 25 2.73478 25 3V9C25 9.26522 25.1054 9.51957 25.2929 9.70711C25.4804 9.89464 25.7348 10 26 10Z" fill="#FBB040"/>
<path d="M13 6H23V8H13V6Z" fill="#FBB040"/>
</g>
<defs>
<clipPath id="clip0_4_13">
<rect width="36" height="36" fill="white"/>
</clipPath>
</defs>
</svg>
