<svg width="19" height="15" viewBox="0 0 19 15" fill="none" xmlns="http://www.w3.org/2000/svg">
<path fill-rule="evenodd" clip-rule="evenodd" d="M16.3599 1.68324H3.21822C2.7646 1.68324 2.39687 2.05097 2.39687 2.50459V12.3608C2.39687 12.8145 2.7646 13.1822 3.21822 13.1822H16.3599C16.8135 13.1822 17.1812 12.8145 17.1812 12.3608V2.50459C17.1812 2.05097 16.8135 1.68324 16.3599 1.68324ZM3.21822 0.0405273C1.85736 0.0405273 0.75416 1.14373 0.75416 2.50459V12.3608C0.75416 13.7217 1.85736 14.8249 3.21822 14.8249H16.3599C17.7208 14.8249 18.824 13.7217 18.824 12.3608V2.50459C18.824 1.14373 17.7208 0.0405273 16.3599 0.0405273H3.21822Z" fill="#6C5DD3"/>
<path fill-rule="evenodd" clip-rule="evenodd" d="M4.22989 3.62124C4.5203 3.27276 5.03821 3.22568 5.3867 3.51607L9.26318 6.74648C9.56782 7.00028 10.0102 7.00028 10.3148 6.74648L14.1913 3.51607C14.5398 3.22568 15.0577 3.27276 15.3481 3.62124C15.6385 3.96972 15.5915 4.48764 15.243 4.77804L11.3664 8.0084C10.4527 8.76996 9.12535 8.76996 8.21151 8.0084L4.33506 4.77804C3.98657 4.48764 3.93949 3.96972 4.22989 3.62124Z" fill="#6C5DD3"/>
</svg>
