<svg width="16" height="19" viewBox="0 0 16 19" fill="none" xmlns="http://www.w3.org/2000/svg">
<path fill-rule="evenodd" clip-rule="evenodd" d="M11.6014 12.5722C12.7519 10.9751 13.5385 9.21988 13.5385 7.44321C13.5385 4.26787 10.9644 1.69373 7.78905 1.69373C4.61371 1.69373 2.03957 4.26787 2.03957 7.44321C2.03957 9.21988 2.82618 10.9751 3.97671 12.5722C5.11857 14.1571 6.52261 15.4517 7.52367 16.2715C7.68786 16.406 7.89024 16.406 8.05443 16.2715C9.0555 15.4517 10.4595 14.1571 11.6014 12.5722V12.5722ZM9.09533 17.5423C11.2179 15.8039 15.1812 11.9538 15.1812 7.44321C15.1812 3.36062 11.8717 0.0510254 7.78905 0.0510254C3.70646 0.0510254 0.396866 3.36062 0.396866 7.44321C0.396866 11.9538 4.3602 15.8039 6.48277 17.5423C7.25238 18.1726 8.32573 18.1726 9.09533 17.5423Z" fill="#6C5DD3"/>
<path fill-rule="evenodd" clip-rule="evenodd" d="M7.78907 5.80042C6.88181 5.80042 6.14637 6.53588 6.14637 7.44313C6.14637 8.35039 6.88181 9.08583 7.78907 9.08583C8.69634 9.08583 9.43178 8.35039 9.43178 7.44313C9.43178 6.53588 8.69634 5.80042 7.78907 5.80042ZM4.50366 7.44313C4.50366 5.62864 5.97459 4.15771 7.78907 4.15771C9.60352 4.15771 11.0745 5.62864 11.0745 7.44313C11.0745 9.25758 9.60352 10.7285 7.78907 10.7285C5.97459 10.7285 4.50366 9.25758 4.50366 7.44313Z" fill="#6C5DD3"/>
</svg>
