<svg width="34" height="42" viewBox="0 0 34 42" fill="none" xmlns="http://www.w3.org/2000/svg">
<path d="M14 20V15.8L26.4 3.4L30.6 7.6L18.2 20H14ZM32 6.2L27.8 2L29.2 0.6C29.6 0.2 30.0667 0 30.6 0C31.1333 0 31.6 0.2 32 0.6L33.4 2C33.8 2.4 34 2.86667 34 3.4C34 3.93333 33.8 4.4 33.4 4.8L32 6.2ZM16 42C10.6333 37.4333 6.62533 33.1913 3.976 29.274C1.32533 25.358 0 21.7333 0 18.4C0 13.4 1.60867 9.41667 4.826 6.45C8.042 3.48333 11.7667 2 16 2C16.9 2 17.792 2.07467 18.676 2.224C19.5587 2.37467 20.4167 2.58333 21.25 2.85L10 14.15V24H19.9L31.1 12.8C31.4 13.6667 31.6253 14.5667 31.776 15.5C31.9253 16.4333 32 17.4 32 18.4C32 21.7333 30.6753 25.358 28.026 29.274C25.3753 33.1913 21.3667 37.4333 16 42Z" fill="#FBB040"/>
</svg>
